# xmcd
#
# Track frame offsets:
#	150
#	26362
#	50810
#	72312
#	111057
#	135799
#	162561
#	190924
#	214275
#	232919
#
# Disc length: 3413 seconds
#
# Revision: 12
# Processed by: cddbd v1.5.2PL0 Copyright (c) Steve Scherf et al.
# Submitted via: Jack! The Knife 20 Magnifico
#
DISCID=880d530a
DTITLE=Metal Church - The Weight Of The World
DYEAR=2004
DGENRE=Metal
TTITLE0=Leave Them Behind
TTITLE1=Weight Of The World
TTITLE2=Hero's Soul
TTITLE3=Madman's Overture
TTITLE4=Sunless Sky
TTITLE5=Cradle To Grave
TTITLE6=Wings Of Tomorrow
TTITLE7=Time Will Tell
TTITLE8=Bomb To Drop
TTITLE9=Blood Money
EXTD=Kurdt Vanderhoof and Chris Jacobson
EXTT0=Munroe, Vanderhoof
EXTT1=Munroe, Vanderhoof, Arrington
EXTT2=Munroe, Vanderhoof
EXTT3=Kurdt Vanderhoof
EXTT4=Munroe, Vanderhoof
EXTT5=Munroe, Vanderhoof
EXTT6=Munroe, Vanderhoof
EXTT7=Munroe, Vanderhoof, Reynolds, Arrington
EXTT8=Munroe, Vanderhoof
EXTT9=Munroe, Vanderhoof
PLAYORDER=
